<svg width="398" height="236" viewBox="0 0 398 236" fill="none" xmlns="http://www.w3.org/2000/svg">
<path d="M30.8616 45.0764L36.6408 41.7781C40.2882 45.7046 42.1119 50.1285 42.1119 55.0497C42.1119 60.0233 40.2625 64.3948 36.5638 68.1643L30.9386 64.866C32.2229 63.5572 33.199 62.0651 33.8668 60.3898C34.586 58.6621 34.9456 56.8559 34.9456 54.9712C34.9456 53.1388 34.586 51.3588 33.8668 49.6311C33.199 47.9035 32.1972 46.3852 30.8616 45.0764ZM22 54.8141C22 51.3588 22.8219 48.2438 24.4658 45.469C26.1097 42.6419 28.3187 40.4169 31.0927 38.7939C33.8668 37.171 36.9491 36.3595 40.3396 36.3595C43.6787 36.3595 46.7096 37.1972 49.4323 38.8725C52.2064 40.5478 54.4153 42.799 56.0592 45.6261C57.7031 48.4532 58.525 51.5944 58.525 55.0497C58.525 58.4527 57.7031 61.5677 56.0592 64.3948C54.4153 67.1695 52.2064 69.3946 49.4323 71.0699C46.7096 72.7452 43.6787 73.5829 40.3396 73.5829C36.9491 73.5829 33.8668 72.7452 31.0927 71.0699C28.3187 69.3422 26.1097 67.0648 24.4658 64.2378C22.8219 61.3583 22 58.2171 22 54.8141ZM29.5516 55.0497C29.5516 57.0391 30.0139 58.8715 30.9386 60.5468C31.9147 62.1698 33.199 63.4786 34.7915 64.4733C36.4354 65.4157 38.259 65.8869 40.2625 65.8869C42.1633 65.8869 43.9099 65.3895 45.5024 64.3948C47.1463 63.4001 48.4562 62.0913 49.4323 60.4683C50.4084 58.793 50.8964 56.9606 50.8964 54.9712C50.8964 52.9817 50.4084 51.1756 49.4323 49.5526C48.4562 47.8773 47.1463 46.5423 45.5024 45.5475C43.9099 44.5528 42.1633 44.0555 40.2625 44.0555C38.259 44.0555 36.4354 44.5528 34.7915 45.5475C33.199 46.5423 31.9147 47.8773 30.9386 49.5526C30.0139 51.2279 29.5516 53.0603 29.5516 55.0497Z" fill="#F37D58"/>
<path d="M74.3988 74.054C72.1898 72.117 70.4175 69.6302 69.0818 66.5937C67.7462 63.5048 67.0784 60.0495 67.0784 56.2277C67.0784 52.4582 67.9003 49.0814 69.5442 46.0973C71.2394 43.0608 73.4998 40.6787 76.3252 38.951C79.202 37.171 82.3613 36.281 85.8032 36.281C89.2965 36.281 92.4558 37.171 95.2812 38.951C98.1067 40.6787 100.367 43.0608 102.062 46.0973C103.758 49.0814 104.605 52.4582 104.605 56.2277C104.605 60.0495 103.937 63.5048 102.602 66.5937C101.266 69.6302 99.4937 72.117 97.2847 74.054L92.8154 67.7716C94.0997 66.5675 95.1014 64.9969 95.8206 63.0598C96.5912 61.1227 96.9765 58.8453 96.9765 56.2277C96.9765 53.8718 96.4628 51.7776 95.4353 49.9452C94.4593 48.1129 93.1236 46.6732 91.4284 45.6261C89.7845 44.5267 87.9094 43.9769 85.8032 43.9769C83.7484 43.9769 81.8733 44.5267 80.1781 45.6261C78.4828 46.6732 77.1215 48.1129 76.094 49.9452C75.118 51.7776 74.63 53.8718 74.63 56.2277C74.63 58.8453 74.9896 61.1227 75.7087 63.0598C76.4793 64.9969 77.5067 66.5675 78.791 67.7716L74.3988 74.054ZM115.701 74.054C114.109 74.054 112.542 73.8446 111.001 73.4258L114.083 66.1225C114.648 66.2795 115.188 66.3581 115.701 66.3581C117.705 66.3581 119.529 65.8607 121.172 64.866C122.868 63.8189 124.229 62.4316 125.256 60.7039C126.284 58.9762 126.798 57.0653 126.798 54.9712C126.798 52.7723 126.258 50.8353 125.179 49.1599C124.101 47.4323 122.714 46.0973 121.018 45.1549C119.323 44.1602 117.551 43.6628 115.701 43.6628C113.698 43.6628 111.848 44.1864 110.153 45.2334C108.458 46.2281 107.097 47.6155 106.069 49.3955C105.042 51.1756 104.528 53.2435 104.528 55.5994L99.3653 46.2543C101.009 42.9561 103.295 40.4169 106.223 38.6369C109.152 36.8569 112.311 35.9669 115.701 35.9669C118.938 35.9669 121.969 36.7783 124.794 38.4013C127.62 40.0243 129.906 42.2755 131.652 45.1549C133.45 48.0343 134.349 51.3064 134.349 54.9712C134.349 58.4789 133.502 61.6724 131.806 64.5519C130.111 67.4313 127.851 69.7349 125.025 71.4625C122.2 73.1902 119.092 74.054 115.701 74.054Z" fill="#F37D58"/>
<path d="M110.693 108.136C109.203 108.136 107.687 107.901 106.146 107.429L108.535 100.754C109.408 100.964 110.153 101.068 110.77 101.068C112.516 101.068 114.135 100.388 115.624 99.0267C117.114 97.7178 117.859 95.964 117.859 93.7651C117.859 92.1945 117.499 90.8595 116.78 89.7601C116.061 88.713 115.162 87.9015 114.083 87.3256C112.953 86.7498 111.823 86.4618 110.693 86.4618C108.689 86.4618 106.994 87.1686 105.607 88.5821C104.168 90.048 103.398 91.7495 103.295 93.6866L97.5159 88.5821C98.6974 85.4933 100.572 83.1897 103.141 81.6715C105.658 80.1532 108.175 79.3941 110.693 79.3941C112.953 79.3941 115.162 79.9438 117.32 81.0432C119.477 82.1427 121.275 83.7656 122.714 85.9121C124.101 88.0586 124.794 90.6763 124.794 93.7651C124.794 96.4352 124.152 98.8434 122.868 100.99C121.532 103.189 119.811 104.916 117.705 106.173C115.547 107.482 113.21 108.136 110.693 108.136ZM80.0239 107.429C78.3287 105.545 77.0701 103.451 76.2481 101.147C75.3748 98.8958 74.9382 96.6184 74.9382 94.3148C74.9382 91.6448 75.529 89.158 76.7105 86.8545C77.8407 84.6033 79.4845 82.7971 81.6421 81.4359C83.7484 80.0747 86.2399 79.3941 89.1167 79.3941C91.9935 79.3941 94.5107 80.0747 96.6683 81.4359C98.7745 82.7971 100.418 84.6033 101.6 86.8545C102.781 89.158 103.372 91.6448 103.372 94.3148C103.372 96.6184 102.936 98.8958 102.062 101.147C101.189 103.451 99.9047 105.545 98.2094 107.429L93.663 102.168C95.5638 100.021 96.5141 97.5084 96.5141 94.629C96.5141 92.4825 95.872 90.5716 94.5877 88.8963C93.2521 87.2733 91.4284 86.4618 89.1167 86.4618C86.805 86.4618 85.007 87.2733 83.7227 88.8963C82.387 90.5716 81.7192 92.4825 81.7192 94.629C81.7192 97.5084 82.6696 100.021 84.5703 102.168L80.0239 107.429Z" fill="#F37D58"/>
<path d="M156.85 107.744V70.2061C156.85 66.8031 156.362 64.4472 155.386 63.1383C154.461 61.7771 153.536 61.0965 152.612 61.0965C152.098 61.0965 151.661 61.2798 151.302 61.6463C150.942 61.9604 150.762 62.3792 150.762 62.9027C150.762 63.9498 151.636 64.7613 153.382 65.3372C155.18 65.9131 157.209 66.201 159.47 66.201C161.062 66.201 162.603 66.0439 164.093 65.7298C165.634 65.4157 166.893 64.9183 167.869 64.2378C168.896 63.5572 169.41 62.6671 169.41 61.5677C169.41 60.1542 168.922 59.0024 167.946 58.1124C166.97 57.2224 165.711 56.4894 164.17 55.9135C162.68 55.2853 161.062 54.6832 159.316 54.1073C157.62 53.5315 156.002 52.877 154.461 52.1441C152.971 51.3588 151.738 50.3641 150.762 49.1599C149.786 47.9035 149.298 46.3067 149.298 44.3696C149.298 42.4849 149.786 40.9143 150.762 39.6578C151.79 38.4013 153.125 37.4851 154.769 36.9092C156.413 36.281 158.16 35.9669 160.009 35.9669C161.91 35.9669 163.785 36.281 165.634 36.9092C167.484 37.4851 169.153 38.3489 170.643 39.5007L166.174 45.3905C164.992 44.5528 163.785 43.9508 162.552 43.5843C161.37 43.2178 160.343 43.0346 159.47 43.0346C158.648 43.0346 157.954 43.1655 157.389 43.4272C156.875 43.6366 156.619 43.9769 156.619 44.4481C156.619 44.9717 157.107 45.4428 158.083 45.8617C159.059 46.2805 160.292 46.7517 161.781 47.2752C163.323 47.7464 164.941 48.3485 166.636 49.0814C168.331 49.762 169.924 50.6258 171.414 51.6729C172.955 52.72 174.213 54.0288 175.189 55.5994C176.165 57.1177 176.653 58.9762 176.653 61.1751C176.653 63.4263 176.114 65.3372 175.035 66.9078C174.008 68.4784 172.621 69.761 170.874 70.7558C169.128 71.7505 167.201 72.4573 165.095 72.8761C163.04 73.3473 160.985 73.5829 158.93 73.5829C156.259 73.5829 153.716 73.2164 151.302 72.4834C148.939 71.7505 147.012 70.6249 145.522 69.1066C144.084 67.536 143.365 65.5466 143.365 63.1383C143.365 60.2589 144.264 58.06 146.062 56.5418C147.911 54.9712 149.992 54.1859 152.303 54.1859C154.256 54.1859 156.156 54.7356 158.006 55.835C159.855 56.8821 161.37 58.5312 162.552 60.7824C163.785 63.0336 164.401 65.9131 164.401 69.4207V107.744H156.85Z" fill="#F37D58"/>
<path d="M166.482 30.0771C163.862 30.0771 161.473 29.4227 159.316 28.1138C157.158 26.7526 155.437 24.9464 154.153 22.6952C152.817 20.444 152.149 17.9573 152.149 15.2349C152.149 12.5648 152.817 10.1304 154.153 7.93156C155.437 5.68036 157.158 3.90034 159.316 2.5915C161.473 1.23031 163.862 0.549712 166.482 0.549712C168.896 0.549712 171.08 1.09942 173.032 2.19885C174.933 3.29827 176.551 4.76417 177.886 6.59654L172.492 11.0728C171.876 10.078 171.054 9.26657 170.027 8.63833C168.999 8.01009 167.818 7.69597 166.482 7.69597C164.478 7.69597 162.758 8.42891 161.319 9.89481C159.881 11.3607 159.162 13.1407 159.162 15.2349C159.162 17.3814 159.881 19.2137 161.319 20.732C162.758 22.1979 164.478 22.9308 166.482 22.9308V30.0771Z" fill="#F37D58"/>
<path d="M179.196 99.5764C176.885 99.5764 174.933 98.7387 173.34 97.0634C171.696 95.3881 170.874 93.3725 170.874 91.0166C170.874 88.6607 171.696 86.6451 173.34 84.9697C174.933 83.3468 176.885 82.5353 179.196 82.5353C181.457 82.5353 183.409 83.3468 185.053 84.9697C186.697 86.6451 187.519 88.6607 187.519 91.0166C187.519 93.3725 186.697 95.3881 185.053 97.0634C183.409 98.7387 181.457 99.5764 179.196 99.5764ZM179.196 94.0792C180.018 94.0792 180.712 93.7651 181.277 93.1369C181.842 92.561 182.125 91.8542 182.125 91.0166C182.125 90.2313 181.842 89.5245 181.277 88.8963C180.712 88.3204 180.018 88.0324 179.196 88.0324C178.323 88.0324 177.63 88.3204 177.116 88.8963C176.551 89.5245 176.268 90.2313 176.268 91.0166C176.268 91.8542 176.551 92.561 177.116 93.1369C177.63 93.7651 178.323 94.0792 179.196 94.0792Z" fill="#F37D58"/>
<path d="M244.078 109C238.068 101.356 233.804 93.0584 231.287 84.1059C228.77 75.1535 227.511 65.4681 227.511 55.0497C227.511 44.5267 228.898 34.7889 231.672 25.8365C234.498 16.884 238.736 8.35038 244.387 0.235591H252.863C246.904 8.6645 242.434 17.4861 239.455 26.7003C236.527 35.9145 235.063 45.3643 235.063 55.0497C235.063 64.8398 236.475 74.342 239.301 83.5562C242.178 92.7704 246.698 101.252 252.863 109H244.078Z" fill="#F37D58"/>
<path d="M287.23 109L262.033 65.8084C261.776 65.4419 261.545 65.1016 261.339 64.7875C261.134 64.421 260.954 64.0545 260.8 63.688L267.581 60.0756C268.814 62.3268 270.38 63.9498 272.281 64.9445C274.182 65.8869 276.108 66.3581 278.061 66.3581C280.115 66.3581 281.965 65.8345 283.609 64.7875C285.304 63.7404 286.64 62.353 287.616 60.6254C288.643 58.8977 289.157 57.013 289.157 54.9712C289.157 52.9294 288.643 51.0708 287.616 49.3955C286.64 47.6679 285.304 46.2805 283.609 45.2334C281.965 44.1864 280.115 43.6628 278.061 43.6628C276.108 43.6628 274.233 44.134 272.435 45.0764C270.637 46.0187 269.019 47.6155 267.581 49.8667L260.8 46.2543C262.033 43.7937 263.599 41.8043 265.5 40.286C267.452 38.7678 269.533 37.6683 271.742 36.9878C273.951 36.3072 276.057 35.9669 278.061 35.9669C281.451 35.9669 284.559 36.8307 287.384 38.5584C290.21 40.286 292.47 42.5896 294.165 45.469C295.861 48.3485 296.708 51.5158 296.708 54.9712C296.708 58.4789 295.861 61.6724 294.165 64.5519C292.47 67.4313 290.21 69.7349 287.384 71.4625C284.559 73.1902 281.451 74.054 278.061 74.054C277.701 74.054 277.264 74.0279 276.751 73.9755C276.237 73.9232 275.8 73.8446 275.441 73.7399L296.092 109H287.23Z" fill="#F37D58"/>
<path d="M324.603 74.054C321.161 74.054 318.027 73.1902 315.202 71.4625C312.428 69.7349 310.219 67.4313 308.575 64.5519C306.983 61.6724 306.186 58.4789 306.186 54.9712C306.186 51.5158 307.008 48.3485 308.652 45.469C310.296 42.5896 312.479 40.286 315.202 38.5584C317.976 36.8307 321.033 35.9669 324.372 35.9669C327.814 35.9669 330.922 36.8307 333.696 38.5584C336.521 40.286 338.756 42.5896 340.4 45.469C342.044 48.3485 342.865 51.5158 342.865 54.9712C342.865 58.4789 342.044 61.6724 340.4 64.5519C338.756 67.4313 336.547 69.7349 333.773 71.4625C331.05 73.1902 327.993 74.054 324.603 74.054ZM324.372 66.3581C326.427 66.3581 328.276 65.8345 329.92 64.7875C331.564 63.7404 332.874 62.353 333.85 60.6254C334.826 58.8977 335.314 57.013 335.314 54.9712C335.314 52.9294 334.826 51.0708 333.85 49.3955C332.874 47.6679 331.564 46.2805 329.92 45.2334C328.327 44.1864 326.555 43.6628 324.603 43.6628C322.599 43.6628 320.776 44.1864 319.132 45.2334C317.488 46.2805 316.178 47.6679 315.202 49.3955C314.226 51.0708 313.738 52.9294 313.738 54.9712C313.738 57.013 314.226 58.8977 315.202 60.6254C316.178 62.353 317.462 63.7404 319.055 64.7875C320.699 65.8345 322.471 66.3581 324.372 66.3581Z" fill="#F37D58"/>
<path d="M350.571 108.764C356.787 101.068 361.308 92.5872 364.133 83.3206C366.959 74.054 368.371 64.5519 368.371 54.8141C368.371 45.1287 366.907 35.6789 363.979 26.4647C361.051 17.2505 356.582 8.42891 350.571 0H359.125C364.724 8.11479 368.936 16.6484 371.762 25.6009C374.587 34.5533 376 44.2911 376 54.8141C376 65.2325 374.716 74.9179 372.147 83.8703C369.63 92.8751 365.366 101.173 359.356 108.764H350.571Z" fill="#F37D58"/>
<path d="M21.7433 196.043C17.5676 196.043 13.8393 195.026 10.5585 192.991C7.27758 190.955 4.6827 188.292 2.77383 184.999C0.92461 181.647 0 178.056 0 174.224C0 170.334 0.92461 166.742 2.77383 163.45C4.6827 160.157 7.27758 157.524 10.5585 155.548C13.8393 153.513 17.5676 152.495 21.7433 152.495C25.3224 152.495 28.812 153.423 32.2122 155.279C35.6721 157.134 38.4459 159.858 40.5337 163.45L32.4807 167.221C31.2876 165.365 29.7367 163.929 27.8278 162.911C25.9189 161.833 23.8907 161.295 21.7433 161.295C19.2379 161.295 17.0009 161.923 15.0324 163.18C13.0638 164.378 11.5129 165.964 10.3795 167.939C9.30576 169.915 8.76888 172.01 8.76888 174.224C8.76888 176.499 9.33558 178.624 10.469 180.6C11.6024 182.575 13.1235 184.191 15.0324 185.448C17.0009 186.645 19.2379 187.244 21.7433 187.244C23.5925 187.244 25.4417 186.825 27.2909 185.987C29.1998 185.089 30.8402 183.682 32.2122 181.767C31.2578 181.348 30.363 181.049 29.5279 180.869C28.6927 180.629 27.7681 180.51 26.754 180.51C24.368 180.51 22.131 181.138 20.0432 182.395C18.015 183.652 16.4342 185.329 15.3008 187.424L9.03732 180.959C10.5883 178.684 12.3778 176.888 14.406 175.571C16.4342 174.195 18.522 173.207 20.6695 172.608C22.817 172.01 24.8452 171.71 26.754 171.71C29.6174 171.71 32.421 172.279 35.165 173.416C37.909 174.554 40.4741 176.379 42.8602 178.894C42.204 182.126 40.832 185.059 38.7442 187.693C36.716 190.267 34.2106 192.302 31.228 193.799C28.2454 195.295 25.0838 196.043 21.7433 196.043Z" fill="#F37D58"/>
<path d="M74.625 196.043C70.3897 196.043 66.6614 195.056 63.4402 193.08C60.219 191.105 57.7136 188.471 55.924 185.179C54.1344 181.887 53.2397 178.235 53.2397 174.224C53.2397 170.274 54.1344 166.652 55.924 163.36C57.7136 160.068 60.219 157.434 63.4402 155.458C66.6614 153.483 70.3897 152.495 74.625 152.495C78.8007 152.495 82.35 153.483 85.2729 155.458C88.2555 157.434 90.6715 160.098 92.5207 163.45C94.4296 166.742 95.8314 170.334 96.7262 174.224C97.8596 178.834 99.6193 182.156 102.005 184.191C104.391 186.226 107.195 187.244 110.416 187.244C112.743 187.244 114.801 186.615 116.59 185.358C118.38 184.101 119.752 182.485 120.706 180.51C121.72 178.534 122.228 176.439 122.228 174.224C122.228 171.89 121.72 169.765 120.706 167.849C119.692 165.874 118.29 164.288 116.501 163.091C114.711 161.893 112.683 161.295 110.416 161.295C109.701 161.295 108.895 161.385 108 161.564C107.106 161.744 106.36 161.953 105.763 162.193L101.647 154.471C102.96 153.692 104.362 153.184 105.853 152.944C107.344 152.645 108.865 152.495 110.416 152.495C113.996 152.495 117.336 153.423 120.438 155.279C123.6 157.075 126.135 159.619 128.044 162.911C130.012 166.203 130.996 169.974 130.996 174.224C130.996 178.235 130.102 181.887 128.312 185.179C126.522 188.471 124.077 191.105 120.975 193.08C117.873 195.056 114.353 196.043 110.416 196.043C106.539 196.043 103.288 195.415 100.663 194.158C98.0385 192.901 95.891 191.225 94.2208 189.13C92.5505 187.035 91.1785 184.7 90.1048 182.126C89.0907 179.552 88.2257 176.918 87.5099 174.224C86.5555 170.812 85.3624 168.179 83.9308 166.323C82.5588 164.467 81.0674 163.18 79.4568 162.462C77.8462 161.684 76.2356 161.295 74.625 161.295C72.2986 161.295 70.1809 161.893 68.272 163.091C66.3632 164.228 64.842 165.784 63.7086 167.76C62.5752 169.675 62.0085 171.8 62.0085 174.135C62.0085 176.529 62.5752 178.714 63.7086 180.689C64.842 182.665 66.3632 184.251 68.272 185.448C70.1809 186.645 72.2986 187.244 74.625 187.244C75.4601 187.244 76.176 187.154 76.7725 186.975C77.369 186.735 77.9357 186.496 78.4726 186.256L82.6781 193.978C82.0815 194.457 81.0078 194.906 79.4568 195.325C77.9655 195.804 76.3549 196.043 74.625 196.043Z" fill="#F37D58"/>
<path d="M109.969 225.225C107.285 225.225 105.018 224.267 103.169 222.352C101.26 220.436 100.305 218.132 100.305 215.438C100.305 212.744 101.26 210.44 103.169 208.524C105.018 206.669 107.285 205.741 109.969 205.741C112.594 205.741 114.86 206.669 116.769 208.524C118.678 210.44 119.633 212.744 119.633 215.438C119.633 218.132 118.678 220.436 116.769 222.352C114.86 224.267 112.594 225.225 109.969 225.225ZM109.969 218.94C110.923 218.94 111.729 218.581 112.385 217.862C113.041 217.204 113.369 216.396 113.369 215.438C113.369 214.54 113.041 213.732 112.385 213.014C111.729 212.355 110.923 212.026 109.969 212.026C108.955 212.026 108.15 212.355 107.553 213.014C106.897 213.732 106.569 214.54 106.569 215.438C106.569 216.396 106.897 217.204 107.553 217.862C108.15 218.581 108.955 218.94 109.969 218.94Z" fill="#F37D58"/>
<path d="M162.224 196.043C157.989 196.043 154.261 195.056 151.04 193.08C147.818 191.105 145.313 188.471 143.523 185.179C141.734 181.887 140.839 178.235 140.839 174.224C140.839 170.274 141.734 166.652 143.523 163.36C145.313 160.068 147.818 157.434 151.04 155.458C154.261 153.483 157.989 152.495 162.224 152.495C166.4 152.495 169.949 153.483 172.872 155.458C175.855 157.434 178.271 160.098 180.12 163.45C182.029 166.742 183.431 170.334 184.326 174.224C185.459 178.834 187.219 182.156 189.605 184.191C191.991 186.226 194.795 187.244 198.016 187.244C200.342 187.244 202.4 186.615 204.19 185.358C205.979 184.101 207.351 182.485 208.306 180.51C209.32 178.534 209.827 176.439 209.827 174.224C209.827 171.89 209.32 169.765 208.306 167.849C207.292 165.874 205.89 164.288 204.1 163.091C202.311 161.893 200.283 161.295 198.016 161.295C197.3 161.295 196.495 161.385 195.6 161.564C194.705 161.744 193.959 161.953 193.363 162.193L189.247 154.471C190.559 153.692 191.961 153.184 193.452 152.944C194.944 152.645 196.465 152.495 198.016 152.495C201.595 152.495 204.935 153.423 208.037 155.279C211.199 157.075 213.734 159.619 215.643 162.911C217.612 166.203 218.596 169.974 218.596 174.224C218.596 178.235 217.701 181.887 215.911 185.179C214.122 188.471 211.676 191.105 208.574 193.08C205.472 195.056 201.953 196.043 198.016 196.043C194.138 196.043 190.887 195.415 188.263 194.158C185.638 192.901 183.49 191.225 181.82 189.13C180.15 187.035 178.778 184.7 177.704 182.126C176.69 179.552 175.825 176.918 175.109 174.224C174.155 170.812 172.962 168.179 171.53 166.323C170.158 164.467 168.667 163.18 167.056 162.462C165.446 161.684 163.835 161.295 162.224 161.295C159.898 161.295 157.78 161.893 155.871 163.091C153.963 164.228 152.441 165.784 151.308 167.76C150.175 169.675 149.608 171.8 149.608 174.135C149.608 176.529 150.175 178.714 151.308 180.689C152.441 182.665 153.963 184.251 155.871 185.448C157.78 186.645 159.898 187.244 162.224 187.244C163.059 187.244 163.775 187.154 164.372 186.975C164.968 186.735 165.535 186.496 166.072 186.256L170.277 193.978C169.681 194.457 168.607 194.906 167.056 195.325C165.565 195.804 163.954 196.043 162.224 196.043Z" fill="#F37D58"/>
<path d="M235.418 196.043C234.046 196.043 232.704 195.924 231.391 195.684C230.138 195.445 228.826 194.966 227.454 194.248L230.854 186.346C231.51 186.705 232.256 186.945 233.091 187.064C233.926 187.184 234.672 187.244 235.328 187.244C237.714 187.244 239.862 186.645 241.771 185.448C243.68 184.251 245.171 182.665 246.245 180.689C247.378 178.714 247.945 176.559 247.945 174.224C247.945 171.89 247.378 169.765 246.245 167.849C245.171 165.874 243.68 164.288 241.771 163.091C239.921 161.893 237.804 161.295 235.418 161.295C232.614 161.295 229.87 162.193 227.186 163.988C224.501 165.784 221.31 168.268 217.612 171.441L212.511 163.719C215.494 161.265 218.148 159.23 220.475 157.613C222.801 155.937 225.098 154.68 227.365 153.842C229.691 152.944 232.375 152.495 235.418 152.495C239.295 152.495 242.844 153.483 246.066 155.458C249.287 157.434 251.852 160.068 253.761 163.36C255.729 166.652 256.714 170.274 256.714 174.224C256.714 178.235 255.729 181.887 253.761 185.179C251.852 188.471 249.287 191.105 246.066 193.08C242.844 195.056 239.295 196.043 235.418 196.043Z" fill="#F37D58"/>
<path d="M288.12 195.774C284.303 195.774 280.724 194.846 277.383 192.991C274.102 191.075 271.448 188.471 269.42 185.179C267.451 181.887 266.467 178.175 266.467 174.045C266.467 170.393 267.391 166.862 269.241 163.45C271.09 159.978 273.804 157.194 277.383 155.099L281.141 163.18C279.292 164.378 277.83 165.934 276.757 167.849C275.743 169.765 275.236 171.83 275.236 174.045C275.236 176.559 275.832 178.804 277.025 180.779C278.278 182.695 279.888 184.221 281.857 185.358C283.826 186.436 285.913 186.975 288.12 186.975C290.387 186.975 292.505 186.436 294.473 185.358C296.442 184.221 298.023 182.665 299.216 180.689C300.469 178.714 301.095 176.499 301.095 174.045C301.095 172.129 300.647 170.244 299.753 168.388C298.918 166.473 297.546 164.826 295.637 163.45C295.219 164.407 294.891 165.305 294.652 166.143C294.473 166.981 294.384 167.909 294.384 168.927C294.384 171.321 295.01 173.566 296.263 175.661C297.516 177.696 299.186 179.283 301.274 180.42L294.831 186.705C292.565 185.149 290.745 183.353 289.373 181.318C288.061 179.283 287.106 177.188 286.51 175.033C285.913 172.878 285.615 170.842 285.615 168.927C285.615 166.054 286.182 163.24 287.315 160.487C288.508 157.733 290.357 155.159 292.863 152.765C296.024 153.423 298.888 154.8 301.453 156.895C304.077 158.93 306.135 161.444 307.627 164.437C309.118 167.43 309.864 170.633 309.864 174.045C309.864 178.235 308.85 181.976 306.821 185.269C304.793 188.501 302.109 191.075 298.768 192.991C295.488 194.846 291.938 195.774 288.12 195.774Z" fill="#F37D58"/>
<path d="M288.389 236C285.347 236 282.603 235.222 280.157 233.665C277.652 232.169 275.653 230.134 274.162 227.56C272.671 225.046 271.925 222.232 271.925 219.119C271.925 216.126 272.671 213.343 274.162 210.769C275.594 208.255 277.562 206.22 280.067 204.663C282.513 203.107 285.227 202.329 288.21 202.329C291.312 202.329 294.116 203.107 296.621 204.663C299.067 206.22 301.035 208.255 302.527 210.769C303.958 213.343 304.674 216.126 304.674 219.119C304.674 222.232 303.958 225.046 302.527 227.56C301.035 230.134 299.067 232.169 296.621 233.665C294.175 235.222 291.431 236 288.389 236ZM288.21 227.65C290.536 227.65 292.505 226.811 294.116 225.135C295.726 223.459 296.531 221.454 296.531 219.119C296.531 216.845 295.756 214.839 294.205 213.104C292.594 211.427 290.656 210.589 288.389 210.589C286.062 210.589 284.124 211.457 282.573 213.193C280.962 214.929 280.157 216.905 280.157 219.119C280.157 221.394 280.962 223.37 282.573 225.046C284.124 226.782 286.003 227.65 288.21 227.65Z" fill="#F37D58"/>
<path d="M341.629 196.043C337.632 196.043 333.963 195.056 330.623 193.08C327.342 191.045 324.717 188.322 322.749 184.909C320.84 181.438 319.885 177.547 319.885 173.237C319.885 168.867 320.661 164.946 322.212 161.474C323.763 157.943 325.821 155.069 328.386 152.854L333.486 160.038C331.995 161.414 330.802 163.21 329.907 165.425C329.072 167.64 328.654 170.244 328.654 173.237C328.654 175.93 329.221 178.355 330.354 180.51C331.547 182.605 333.128 184.251 335.097 185.448C337.065 186.645 339.242 187.244 341.629 187.244C344.074 187.244 346.252 186.645 348.161 185.448C350.129 184.251 351.68 182.605 352.813 180.51C354.006 178.355 354.603 175.93 354.603 173.237C354.603 170.244 354.156 167.64 353.261 165.425C352.426 163.21 351.262 161.414 349.771 160.038L354.961 152.854C357.526 155.069 359.584 157.943 361.135 161.474C362.686 164.946 363.461 168.867 363.461 173.237C363.461 177.547 362.477 181.438 360.509 184.909C358.54 188.322 355.915 191.045 352.634 193.08C349.354 195.056 345.685 196.043 341.629 196.043ZM376.346 196.043C372.409 196.043 368.741 195.026 365.34 192.991C361.94 190.955 359.286 188.022 357.377 184.191L363.372 173.506C363.372 176.2 363.968 178.594 365.161 180.689C366.354 182.725 367.935 184.341 369.904 185.538C371.872 186.675 374.02 187.244 376.346 187.244C378.494 187.244 380.552 186.675 382.52 185.538C384.489 184.401 386.099 182.874 387.352 180.959C388.605 178.983 389.231 176.769 389.231 174.314C389.231 171.92 388.635 169.735 387.442 167.76C386.248 165.784 384.668 164.228 382.699 163.091C380.79 161.893 378.673 161.295 376.346 161.295C375.75 161.295 375.123 161.355 374.467 161.474L370.888 153.124C372.678 152.705 374.497 152.495 376.346 152.495C380.283 152.495 383.892 153.483 387.173 155.458C390.454 157.374 393.079 160.008 395.047 163.36C397.016 166.652 398 170.304 398 174.314C398 178.504 396.956 182.246 394.868 185.538C392.84 188.77 390.186 191.344 386.905 193.26C383.624 195.116 380.104 196.043 376.346 196.043Z" fill="#F37D58"/>
<path d="M382.61 145.761C379.567 145.761 376.794 145.013 374.288 143.516C371.783 141.96 369.784 139.895 368.293 137.321C366.742 134.747 365.967 131.903 365.967 128.791C365.967 125.738 366.742 122.954 368.293 120.44C369.784 117.866 371.783 115.831 374.288 114.335C376.794 112.778 379.567 112 382.61 112C385.413 112 387.949 112.629 390.215 113.886C392.422 115.143 394.302 116.819 395.853 118.914L389.589 124.032C388.873 122.895 387.919 121.967 386.726 121.248C385.533 120.53 384.161 120.171 382.61 120.171C380.283 120.171 378.285 121.009 376.615 122.685C374.944 124.361 374.109 126.396 374.109 128.791C374.109 131.245 374.944 133.34 376.615 135.076C378.285 136.752 380.283 137.59 382.61 137.59V145.761Z" fill="#F37D58"/>
</svg>
